<svg width="100" height="82" viewBox="0 0 100 82" fill="none" xmlns="http://www.w3.org/2000/svg">
<g clip-path="url(#clip0)">
<path d="M12.137 10.7927C36.9838 -11.8271 89.832 7.63405 88.0103 10.7927L92.7883 15.0543C100.545 21.9728 103.472 50.7271 94.3043 65.6825C90.071 72.5882 95.1335 73.0123 88.0102 75.5028C64.9694 83.5585 39.5256 82.6685 12.1369 76.0082C4.8046 74.2251 10.0006 72.779 6.09533 65.6827C-3.19163 48.8063 -0.927466 30.1584 6.60065 15.0545C7.63946 12.9702 10.4145 12.3605 12.1367 10.7929L12.137 10.7927Z" fill="#955E27"/>
<path d="M26.1939 20.1564L49.317 18.6404L72.6927 19.9037C80.447 20.3228 86.1508 25.2676 86.4578 33.487L86.7489 41.2851C98.2017 42.4861 95.8014 56.3919 84.7938 56.4951C83.2052 64.5653 77.174 69.3745 69.4084 69.4251L30.4884 69.6777C22.8752 69.7272 15.7923 65.9495 15.0162 57.7612C14.9923 57.5091 15.1896 56.947 14.943 57.005C5.15481 59.3074 0.888218 44.4581 12.2551 43.0662C12.6496 43.0179 12.1012 42.2878 12.0292 41.9001L12.1757 33.4872C12.3189 25.2635 18.4443 20.6648 26.1933 20.1565L26.1939 20.1564Z" fill="#F2CDC5" stroke="black"/>
<path d="M34.7462 48.2136C34.7462 50.7878 33.2285 52.8746 31.3564 52.8746C29.4842 52.8746 27.9665 50.7878 27.9665 48.2136C27.9665 45.6393 29.4842 43.5525 31.3564 43.5525C33.2285 43.5525 34.7462 45.6393 34.7462 48.2136Z" fill="black" stroke="black" stroke-width="8.87862" stroke-linecap="round" stroke-linejoin="round"/>
<path d="M72.0343 48.2136C72.0343 50.7878 70.5166 52.8746 68.6445 52.8746C66.7723 52.8746 65.2547 50.7878 65.2547 48.2136C65.2547 45.6393 66.7724 43.5525 68.6445 43.5525C70.5167 43.5525 72.0343 45.6393 72.0343 48.2136Z" fill="black" stroke="black" stroke-width="8.87862" stroke-linecap="round" stroke-linejoin="round"/>
<path d="M24.6814 34.6155C28.8083 34.1102 35.2171 34.2105 38.2127 35.9675C37.11 32.3666 30.1712 32.8221 24.5767 32.5356L24.6814 34.6155Z" fill="#BD8868"/>
<path d="M75.2486 33.768C71.1217 33.2627 64.8605 34.5397 61.8648 36.2967C62.9675 32.6958 69.7588 31.9747 75.3533 31.6881L75.2486 33.768Z" fill="#BD8868"/>
<path d="M30.8665 66.4023C40.7665 46.0697 58.0554 46.8157 69.8219 67.1602C73.1524 72.9192 86.0765 52.2233 86.7906 46.8846C87.3434 42.7538 86.6849 78.5292 74.3697 76.2562C58.5562 81.498 42.3278 81.9677 25.5632 76.2562C16.6816 76.1863 10.2959 44.4251 13.1621 50.3174C14.5448 53.1601 26.6435 75.0808 30.869 66.4026L30.8665 66.4023Z" fill="#C88844"/>
<path d="M59.7303 66.8964C59.7303 70.1058 55.7732 75.1497 50.5802 75.1497C45.3872 75.1497 40.925 70.1057 40.925 66.8964C40.925 63.687 45.3872 66.8964 50.5802 66.8964C55.7732 66.8964 59.7303 63.6869 59.7303 66.8964Z" fill="#F2CDC5"/>
<path fill-rule="evenodd" clip-rule="evenodd" d="M32.2038 49.9085C32.2038 50.6105 31.8244 51.1797 31.3564 51.1797C30.8883 51.1797 30.5089 50.6105 30.5089 49.9085C30.5089 49.2064 30.8883 48.6373 31.3564 48.6373C31.8244 48.6373 32.2038 49.2064 32.2038 49.9085Z" fill="#F2CDC5"/>
<path fill-rule="evenodd" clip-rule="evenodd" d="M68.6445 49.9085C68.6445 50.6105 68.2651 51.1797 67.7971 51.1797C67.329 51.1797 66.9496 50.6105 66.9496 49.9085C66.9496 49.2064 67.329 48.6373 67.7971 48.6373C68.2651 48.6373 68.6445 49.2064 68.6445 49.9085Z" fill="#F2CDC5"/>
</g>
<defs>
<clipPath id="clip0">
<rect width="100" height="81.3559" fill="white"/>
</clipPath>
</defs>
</svg>
